<?xml version="1.0" encoding="UTF-8"?><svg id="Layer_1" xmlns="http://www.w3.org/2000/svg" viewBox="0 0 425.2 425.2"><g><path d="M90.35,273.06c-.65,0-1.89-.12-2.14-.28v-.59h.59c.9,0,1.61-.22,2.2-.65,.99-.75,1.52-2.14,1.52-4.1,0-4.47-2.61-4.6-4.19-4.6-.19,0-.96,0-1.24,.06v14.72c0,1.96,.09,2.64,.4,3.07,.5,.75,1.89,.81,2.2,.81v.59c-1.21-.06-3.69-.09-4.78-.09s-2.86-.03-4.19,.09v-.56c.4,0,1.06-.19,1.52-.68,.53-.62,.56-1.49,.56-4.16v-10.59c0-1.96-.06-2.67-.37-3.14-.06-.09-.47-.71-1.61-.81v-.56c1.21,.06,2.64,.09,3.73,.09,1.74,0,2.79-.09,4.69-.09,.62,0,2.27,.06,3.51,.34,2.27,.53,4.35,1.89,4.35,5.15,0,3.97-3.26,5.96-6.74,5.96Z"/><path d="M118.1,282.19c-3.23,0-4.01-1.3-5.09-2.64-.68-.87-2.98-3.94-4.5-6.18h-1.34v4.29c0,1.96,.09,2.64,.4,3.11,.06,.09,.47,.68,1.58,.78v.56c-1.21-.06-2.98-.09-4.07-.09s-2.86,.03-4.07,.09v-.56c.4,0,1.06-.15,1.52-.68,.53-.59,.56-1.46,.56-4.13v-10.68c0-1.96-.06-2.64-.37-3.1-.06-.09-.47-.68-1.61-.78v-.56c1.21,.06,2.2,.09,3.29,.09,2.24,0,2.83-.09,4.81-.09,.71,0,2.17,0,3.42,.31,3.88,.96,4.13,4.07,4.13,4.88,0,2.92-1.74,4.88-4.47,5.78,0,0,3.38,3.91,5.22,6.02,1.52,1.71,2.58,2.89,3.88,2.95v.5c-.47,.09-1.55,.16-3.29,.16Zm-9.59-19.38c-.43,0-.9,.03-1.34,.09v9.19c.22,.06,.71,.09,1.46,.12,.4,0,.81,0,1.21-.09,.44-.09,2.45-.53,2.45-4.78s-2.58-4.5-3.79-4.53Z"/><path d="M134.06,282.34c-6.46,0-10.28-3.85-10.28-10.19s4.1-10.71,10.56-10.71,10.22,3.88,10.22,10.12c0,6.55-4.01,10.77-10.5,10.77Zm.12-19.53c-3.7,0-5.78,3.23-5.78,9.07s2.24,9.1,5.78,9.1,5.74-3.2,5.74-8.97-2.21-9.19-5.74-9.19Z"/><path d="M158.9,273.06c-.65,0-1.89-.12-2.14-.28v-.59h.59c.9,0,1.61-.22,2.2-.65,.99-.75,1.52-2.14,1.52-4.1,0-4.47-2.61-4.6-4.19-4.6-.19,0-.96,0-1.24,.06v14.72c0,1.96,.09,2.64,.4,3.07,.5,.75,1.89,.81,2.2,.81v.59c-1.21-.06-3.69-.09-4.78-.09s-2.86-.03-4.19,.09v-.56c.4,0,1.06-.19,1.52-.68,.53-.62,.56-1.49,.56-4.16v-10.59c0-1.96-.06-2.67-.37-3.14-.06-.09-.47-.71-1.61-.81v-.56c1.21,.06,2.64,.09,3.73,.09,1.74,0,2.79-.09,4.69-.09,.62,0,2.27,.06,3.51,.34,2.27,.53,4.35,1.89,4.35,5.15,0,3.97-3.26,5.96-6.74,5.96Z"/><path d="M183.43,282.03h-8.69c-1.74,0-3.42-.03-5.15,.06v-.56c.4,0,1.06-.15,1.52-.68,.53-.59,.56-1.46,.56-4.13v-10.68c0-1.96-.06-2.64-.37-3.1-.06-.09-.47-.68-1.61-.78v-.56c1.71,.09,3.04,.09,4.78,.09h8.88s-.03,2.52,.09,3.94h-.65c-.03-1.06-.47-1.71-1.06-2.05-.93-.56-2.27-.47-3.45-.47h-2.33v7.61h2.61c1.12,0,1.96-.06,2.52-.53,.44-.34,.75-.93,.81-1.83h.62c0,.68-.06,1.12-.06,3.07s.06,2.3,.09,3.01h-.62c-.06-.81-.34-1.33-.71-1.68-.65-.56-1.61-.62-2.7-.62h-2.55v6.86c0,1.4,.25,1.58,1.92,1.58h.53c1.49,0,2.89,0,3.73-.84,.4-.4,.71-1.15,.75-2.08h.65c-.12,1.43-.09,4.35-.09,4.35Z"/><path d="M205.78,282.19c-3.23,0-4.01-1.3-5.09-2.64-.68-.87-2.98-3.94-4.5-6.18h-1.34v4.29c0,1.96,.09,2.64,.4,3.11,.06,.09,.47,.68,1.58,.78v.56c-1.21-.06-2.98-.09-4.07-.09s-2.86,.03-4.07,.09v-.56c.4,0,1.06-.15,1.52-.68,.53-.59,.56-1.46,.56-4.13v-10.68c0-1.96-.06-2.64-.37-3.1-.06-.09-.47-.68-1.61-.78v-.56c1.21,.06,2.2,.09,3.29,.09,2.24,0,2.83-.09,4.81-.09,.71,0,2.17,0,3.42,.31,3.88,.96,4.13,4.07,4.13,4.88,0,2.92-1.74,4.88-4.47,5.78,0,0,3.38,3.91,5.22,6.02,1.52,1.71,2.58,2.89,3.88,2.95v.5c-.47,.09-1.55,.16-3.29,.16Zm-9.59-19.38c-.43,0-.9,.03-1.34,.09v9.19c.22,.06,.71,.09,1.46,.12,.4,0,.81,0,1.21-.09,.44-.09,2.45-.53,2.45-4.78s-2.58-4.5-3.79-4.53Z"/><path d="M225.87,265.7c-.03-1.06-.47-1.8-1.06-2.14-.93-.56-2.27-.5-3.45-.5h-.93v14.56c0,1.96,.09,2.64,.4,3.07,.5,.75,1.89,.81,2.21,.81v.59c-1.21-.06-3.7-.09-4.78-.09s-3.6,.03-4.81,.09v-.56c.25,0,1.55-.09,2.14-.75,.53-.59,.56-1.4,.56-4.07v-13.66h-.93c-1.18,0-2.52-.06-3.45,.5-.59,.34-1.02,1.09-1.06,2.14h-.65c.12-1.43,.09-4.01,.09-4.01h16.27s-.03,2.58,.09,4.01h-.65Z"/><path d="M245.62,263.12c-.22,.25-.68,.9-1.43,2.24l-4.5,7.86v4.41c0,1.96,.12,2.64,.4,3.07,.53,.75,1.89,.81,2.24,.81v.59c-1.21-.06-3.7-.09-4.78-.09s-3.6,.03-4.84,.09v-.56c.25,0,1.58-.09,2.14-.75,.53-.59,.59-1.4,.59-4.07v-3.01l-4.63-8.45c-.96-1.74-1.43-2.36-1.68-2.61-.47-.44-.75-.5-1.15-.5v-.56c.78,.06,2.76,.12,4.1,.12,1.18,0,3.45-.03,4.16-.12v.56c-.31,0-.84,.09-1.18,.34-.22,.19-.37,.4-.37,.75,0,.53,.28,1.02,.53,1.49l3.63,6.96,3.29-6.8c.19-.37,.56-1.09,.56-1.65,0-.28-.09-.5-.25-.68-.28-.25-.71-.37-1.3-.4v-.56c.59,.06,1.92,.12,3.11,.12,.87,0,2.05-.03,2.95-.12v.56c-.87,.06-1.27,.62-1.58,.96Z"/><path d="M263.56,282.28c-1.65,0-3.66-.16-5.09-.62v-.53c0-1.46-.06-2.55-.12-3.45h.62c.12,.93,.53,1.71,1.18,2.2,.84,.68,1.99,.99,3.07,.99,4.01,0,4.04-2.67,4.04-3.29,0-2.08-1.3-2.76-2.98-3.85l-1.74-1.12c-2.14-1.4-3.69-2.89-3.69-5.71,0-1.43,.75-5.43,7.2-5.43,2.83,0,4.04,.28,4.75,.34-.09,.4-.06,1.61-.06,1.68,0,1.24,.06,1.86,.06,2.2h-.65c-.06-.78-.37-1.4-.84-1.86-.81-.81-2.17-.99-3.17-.99-3.2,0-3.57,1.86-3.57,2.92,0,1.61,.93,2.39,2.61,3.42l1.99,1.21c2.48,1.52,4.04,2.83,4.04,5.96,0,3.97-3.11,5.93-7.64,5.93Z"/><path d="M296.41,262.84c-.53,.59-.59,1.46-.59,4.13v10.68c0,1.96,.09,2.64,.4,3.11,.06,.09,.47,.68,1.58,.78v.56c-1.21-.06-3.11-.09-4.19-.09s-2.95,.03-4.16,.09v-.56c.4,0,1.06-.19,1.52-.68,.53-.62,.56-1.49,.56-4.13v-4.44h-8.94v5.37c0,1.96,.09,2.64,.4,3.11,.06,.09,.47,.68,1.58,.78v.56c-1.21-.06-3.1-.09-4.19-.09s-2.95,.03-4.16,.09v-.56c.4,0,1.06-.15,1.52-.68,.53-.59,.56-1.46,.56-4.13v-10.68c0-1.96-.06-2.64-.37-3.1-.06-.09-.47-.68-1.62-.78v-.56c1.21,.06,3.11,.09,4.19,.09s2.95-.03,4.16-.09v.56c-.37,0-1.03,.16-1.49,.68-.53,.59-.59,1.46-.59,4.13v3.6h8.94v-4.53c0-1.96-.06-2.64-.37-3.1-.06-.09-.47-.71-1.61-.81v-.53c1.21,.06,3.1,.09,4.19,.09s2.95-.03,4.16-.09v.56c-.37,0-1.02,.16-1.49,.68Z"/><path d="M312.9,282.34c-6.46,0-10.28-3.85-10.28-10.19s4.1-10.71,10.56-10.71,10.22,3.88,10.22,10.12c0,6.55-4.01,10.77-10.5,10.77Zm.12-19.53c-3.7,0-5.78,3.23-5.78,9.07s2.24,9.1,5.78,9.1,5.74-3.2,5.74-8.97-2.2-9.19-5.74-9.19Z"/><path d="M337.74,273.06c-.65,0-1.89-.12-2.14-.28v-.59h.59c.9,0,1.62-.22,2.21-.65,.99-.75,1.52-2.14,1.52-4.1,0-4.47-2.61-4.6-4.19-4.6-.19,0-.96,0-1.24,.06v14.72c0,1.96,.09,2.64,.4,3.07,.5,.75,1.89,.81,2.2,.81v.59c-1.21-.06-3.7-.09-4.78-.09s-2.86-.03-4.19,.09v-.56c.4,0,1.06-.19,1.52-.68,.53-.62,.56-1.49,.56-4.16v-10.59c0-1.96-.06-2.67-.37-3.14-.06-.09-.47-.71-1.62-.81v-.56c1.21,.06,2.64,.09,3.73,.09,1.74,0,2.79-.09,4.69-.09,.62,0,2.27,.06,3.51,.34,2.27,.53,4.35,1.89,4.35,5.15,0,3.97-3.26,5.96-6.74,5.96Z"/></g><g><path d="M200.22,187.16c-1.96,0-5.68-.37-6.42-.84v-1.77h1.77c2.7,0,4.84-.65,6.61-1.95,2.98-2.23,4.56-6.42,4.56-12.29,0-13.4-7.82-13.78-12.57-13.78-.56,0-2.89,0-3.72,.19v44.12c0,5.86,.28,7.91,1.21,9.21,1.49,2.23,5.68,2.42,6.61,2.42v1.77c-3.63-.19-11.08-.28-14.33-.28s-8.56-.09-12.57,.28v-1.68c1.21,0,3.16-.56,4.56-2.05,1.58-1.86,1.68-4.47,1.68-12.47v-31.74c0-5.86-.19-8-1.12-9.4-.19-.28-1.4-2.14-4.84-2.42v-1.68c3.63,.19,7.91,.28,11.17,.28,5.21,0,8.38-.28,14.05-.28,1.86,0,6.79,.19,10.52,1.02,6.79,1.58,13.03,5.68,13.03,15.45,0,11.91-9.77,17.87-20.2,17.87Z"/><path d="M229.16,214.81c-4.93,0-10.98-.47-15.27-1.86v-1.58c0-4.38-.19-7.63-.37-10.33h1.86c.37,2.79,1.58,5.12,3.54,6.61,2.51,2.05,5.96,2.98,9.21,2.98,12.01,0,12.1-8,12.1-9.87,0-6.24-3.91-8.28-8.94-11.54l-5.21-3.35c-6.42-4.19-11.08-8.66-11.08-17.13,0-4.28,2.23-16.29,21.59-16.29,8.47,0,12.1,.84,14.24,1.02-.28,1.21-.19,4.84-.19,5.03,0,3.72,.19,5.58,.19,6.61h-1.96c-.19-2.33-1.12-4.19-2.51-5.58-2.42-2.42-6.52-2.98-9.49-2.98-9.59,0-10.7,5.58-10.7,8.75,0,4.84,2.79,7.17,7.82,10.24l5.96,3.63c7.45,4.56,12.1,8.47,12.1,17.87,0,11.91-9.31,17.78-22.9,17.78Z"/></g><g><path d="M127.35,292.13c-.32,.36-.36,.88-.36,2.49v6.45c0,1.18,.06,1.59,.24,1.88,.04,.06,.28,.41,.96,.47v.34c-.73-.04-1.88-.06-2.53-.06s-1.78,.02-2.51,.06v-.34c.24,0,.64-.09,.92-.41,.32-.36,.34-.88,.34-2.49v-6.45c0-1.18-.04-1.59-.22-1.88-.04-.06-.28-.41-.98-.47v-.34c.73,.04,1.88,.06,2.53,.06s1.78-.02,2.51-.06v.34c-.23,0-.62,.09-.9,.41Z"/><path d="M144.3,292.13c-.32,.36-.36,.88-.36,2.49v9.19h-.92l-7.29-9.51c-.17-.22-.34-.43-.45-.69v7.52c0,1.18,.06,1.52,.24,1.8,.04,.06,.28,.43,.96,.49v.34c-.73-.04-1.09-.07-1.74-.07s-1.07,0-1.88,.07v-.34c.24,0,.64-.09,.92-.41,.32-.36,.34-.88,.34-2.49v-6.45c0-1.18-.04-1.59-.22-1.88-.04-.06-.28-.41-.98-.47v-.34c.73,.04,1.46,.06,2.12,.06,.28,0,1.05-.02,1.56-.06l5.59,7.26c.38,.49,.52,.77,.6,.9v-5.48c0-1.18-.04-1.59-.23-1.88-.04-.06-.28-.43-.98-.49v-.32c.73,.04,1.16,.08,1.82,.08s.99,0,1.8-.08v.34c-.23,0-.62,.09-.9,.41Z"/><path d="M158.23,293.85c-.02-.64-.28-1.09-.64-1.29-.56-.34-1.37-.3-2.08-.3h-.56v8.79c0,1.18,.06,1.59,.24,1.86,.3,.45,1.14,.49,1.33,.49v.36c-.73-.04-2.23-.06-2.89-.06s-2.18,.02-2.91,.06v-.34c.15,0,.94-.06,1.29-.45,.32-.36,.34-.84,.34-2.46v-8.25h-.56c-.71,0-1.52-.04-2.08,.3-.36,.21-.62,.66-.64,1.29h-.39c.08-.86,.06-2.42,.06-2.42h9.83s-.02,1.56,.06,2.42h-.39Z"/><path d="M170.67,303.72h-5.25c-1.05,0-2.06-.02-3.11,.04v-.34c.24,0,.64-.09,.92-.41,.32-.36,.34-.88,.34-2.49v-6.45c0-1.18-.04-1.59-.22-1.88-.04-.06-.28-.41-.98-.47v-.34c1.03,.06,1.84,.06,2.89,.06h5.36s-.02,1.52,.06,2.38h-.39c-.02-.64-.28-1.03-.64-1.24-.56-.34-1.37-.28-2.08-.28h-1.41v4.59h1.58c.67,0,1.18-.04,1.52-.32,.26-.21,.45-.56,.49-1.11h.38c0,.41-.04,.67-.04,1.86s.04,1.39,.06,1.82h-.38c-.04-.49-.21-.81-.43-1.01-.39-.34-.98-.38-1.63-.38h-1.54v4.14c0,.84,.15,.96,1.16,.96h.32c.9,0,1.74,0,2.25-.51,.24-.24,.43-.69,.45-1.26h.39c-.08,.86-.06,2.62-.06,2.62Z"/><path d="M185.93,303.81c-1.95,0-2.42-.79-3.08-1.59-.41-.53-1.8-2.38-2.72-3.73h-.81v2.59c0,1.18,.06,1.59,.24,1.88,.04,.06,.28,.41,.96,.47v.34c-.73-.04-1.8-.06-2.46-.06s-1.73,.02-2.46,.06v-.34c.24,0,.64-.09,.92-.41,.32-.36,.34-.88,.34-2.49v-6.45c0-1.18-.04-1.59-.22-1.88-.04-.06-.28-.41-.98-.47v-.34c.73,.04,1.33,.06,1.99,.06,1.35,0,1.71-.06,2.91-.06,.43,0,1.31,0,2.06,.19,2.34,.58,2.49,2.46,2.49,2.94,0,1.76-1.05,2.94-2.7,3.49,0,0,2.04,2.36,3.15,3.64,.92,1.03,1.56,1.74,2.34,1.78v.3c-.28,.06-.94,.09-1.99,.09Zm-5.79-11.7c-.26,0-.54,.02-.81,.06v5.55c.13,.04,.43,.06,.88,.08,.24,0,.49,0,.73-.06,.26-.06,1.48-.32,1.48-2.89s-1.56-2.72-2.29-2.74Z"/><path d="M202.57,292.13c-.32,.36-.36,.88-.36,2.49v9.19h-.92l-7.29-9.51c-.17-.22-.34-.43-.45-.69v7.52c0,1.18,.06,1.52,.24,1.8,.04,.06,.28,.43,.96,.49v.34c-.73-.04-1.09-.07-1.74-.07s-1.07,0-1.88,.07v-.34c.24,0,.64-.09,.92-.41,.32-.36,.34-.88,.34-2.49v-6.45c0-1.18-.04-1.59-.22-1.88-.04-.06-.28-.41-.98-.47v-.34c.73,.04,1.46,.06,2.12,.06,.28,0,1.05-.02,1.56-.06l5.59,7.26c.38,.49,.52,.77,.6,.9v-5.48c0-1.18-.04-1.59-.23-1.88-.04-.06-.28-.43-.98-.49v-.32c.73,.04,1.16,.08,1.82,.08s.99,0,1.8-.08v.34c-.22,0-.62,.09-.9,.41Z"/><path d="M216.39,303.7c-.56,0-1.95,.02-2.49,.06v-.34c.13,0,.6,.02,.88-.23,.11-.09,.17-.22,.17-.39,0-.24-.09-.54-.28-1.09l-.88-2.59h-3.53l-.96,2.61c-.19,.53-.3,.83-.3,1.07,0,.17,.06,.3,.17,.39,.21,.21,.58,.21,.84,.23v.34c-.66-.04-1.11-.06-1.78-.06-.6,0-1.14,0-1.74,.06v-.34c.52,.02,.81-.38,.92-.54,.15-.23,.43-.88,.92-2.04l3.9-9.45,1.37-.24,3.38,9.53c.38,1.05,.69,1.93,.88,2.23,.11,.17,.36,.54,.88,.53v.34c-.54-.04-1.8-.06-2.34-.06Zm-3.77-7.91c-.24-.73-.36-.99-.53-1.63l-1.54,4.14h2.93l-.86-2.51Z"/><path d="M231.21,293.85c-.02-.64-.28-1.09-.64-1.29-.56-.34-1.37-.3-2.08-.3h-.56v8.79c0,1.18,.06,1.59,.24,1.86,.3,.45,1.14,.49,1.33,.49v.36c-.73-.04-2.23-.06-2.89-.06s-2.18,.02-2.91,.06v-.34c.15,0,.94-.06,1.29-.45,.32-.36,.34-.84,.34-2.46v-8.25h-.56c-.71,0-1.52-.04-2.08,.3-.36,.21-.62,.66-.64,1.29h-.39c.08-.86,.06-2.42,.06-2.42h9.83s-.02,1.56,.06,2.42h-.39Z"/><path d="M239.48,292.13c-.32,.36-.36,.88-.36,2.49v6.45c0,1.18,.06,1.59,.24,1.88,.04,.06,.28,.41,.96,.47v.34c-.73-.04-1.88-.06-2.53-.06s-1.78,.02-2.51,.06v-.34c.24,0,.64-.09,.92-.41,.32-.36,.34-.88,.34-2.49v-6.45c0-1.18-.04-1.59-.23-1.88-.04-.06-.28-.41-.97-.47v-.34c.73,.04,1.88,.06,2.53,.06s1.78-.02,2.51-.06v.34c-.22,0-.62,.09-.9,.41Z"/><path d="M251.2,303.91c-3.9,0-6.21-2.33-6.21-6.15s2.48-6.47,6.38-6.47,6.17,2.34,6.17,6.11c0,3.96-2.42,6.51-6.34,6.51Zm.08-11.8c-2.23,0-3.49,1.95-3.49,5.48s1.35,5.49,3.49,5.49,3.47-1.93,3.47-5.42-1.33-5.55-3.47-5.55Z"/><path d="M273.59,292.13c-.32,.36-.36,.88-.36,2.49v9.19h-.92l-7.29-9.51c-.17-.22-.34-.43-.45-.69v7.52c0,1.18,.06,1.52,.24,1.8,.04,.06,.28,.43,.96,.49v.34c-.73-.04-1.09-.07-1.74-.07s-1.07,0-1.88,.07v-.34c.24,0,.64-.09,.92-.41,.32-.36,.34-.88,.34-2.49v-6.45c0-1.18-.04-1.59-.23-1.88-.04-.06-.28-.41-.97-.47v-.34c.73,.04,1.46,.06,2.12,.06,.28,0,1.05-.02,1.56-.06l5.59,7.26c.38,.49,.53,.77,.6,.9v-5.48c0-1.18-.04-1.59-.23-1.88-.04-.06-.28-.43-.97-.49v-.32c.73,.04,1.16,.08,1.82,.08s.99,0,1.8-.08v.34c-.23,0-.62,.09-.9,.41Z"/><path d="M287.42,303.7c-.56,0-1.95,.02-2.49,.06v-.34c.13,0,.6,.02,.88-.23,.11-.09,.17-.22,.17-.39,0-.24-.09-.54-.28-1.09l-.88-2.59h-3.53l-.96,2.61c-.19,.53-.3,.83-.3,1.07,0,.17,.06,.3,.17,.39,.21,.21,.58,.21,.84,.23v.34c-.66-.04-1.11-.06-1.78-.06-.6,0-1.14,0-1.74,.06v-.34c.53,.02,.81-.38,.92-.54,.15-.23,.43-.88,.92-2.04l3.9-9.45,1.37-.24,3.38,9.53c.38,1.05,.69,1.93,.88,2.23,.11,.17,.36,.54,.88,.53v.34c-.54-.04-1.8-.06-2.34-.06Zm-3.77-7.91c-.24-.73-.36-.99-.52-1.63l-1.54,4.14h2.93l-.86-2.51Z"/><path d="M301.78,303.72h-5.14c-1.05,0-2.06-.02-3.11,.04v-.32c.24-.02,.64-.11,.92-.43,.32-.36,.34-.88,.34-2.49v-6.45c0-1.18-.04-1.59-.23-1.88-.04-.06-.28-.41-.97-.47v-.34c.73,.04,2.08,.06,2.74,.06s2.04-.02,2.78-.06v.34c-.79,.04-1.2,.21-1.46,.56-.28,.38-.26,.96-.26,2.42v7.18c0,.84,.15,.96,1.16,.96h.32c.9,0,1.63,0,2.14-.51,.24-.24,.43-.67,.45-1.24h.39c-.08,.86-.06,2.62-.06,2.62Z"/></g><path d="M274.36,240.09h-123.8V126.62h123.8v113.47Zm-119.8-4h115.8v-105.47h-115.8v105.47Z"/><path d="M280.33,245.41H144.59V121.29h135.74v124.12Zm-134.74-1h133.74V122.29H145.59v122.12Z"/><rect x="80.72" y="297.47" width="34.64" height="1"/><rect x="309.83" y="297.47" width="34.64" height="1"/></svg>